<svg width="510" height="79" viewBox="0 0 510 79" fill="none" xmlns="http://www.w3.org/2000/svg">
<g clip-path="url(#clip0_490_4327)">
<path d="M0.5 18.0169C0.5 10.8279 6.32786 5 13.5169 5H59.4827C66.6717 5 72.4996 10.8279 72.4996 18.0169V63.9827C72.4996 71.1717 66.6717 76.9996 59.4827 76.9996H47.7168C45.9214 76.9996 44.4659 75.5441 44.4659 73.7486V39.5357C44.4659 35.9447 41.5548 33.0337 37.9639 33.0337H3.75096C1.95551 33.0337 0.5 31.5782 0.5 29.7828V18.0169Z" fill="#0A0606"/>
<path d="M28.5337 55.4667C28.5337 51.8758 25.6227 48.9648 22.0318 48.9648H3.75096C1.95551 48.9648 0.5 50.4203 0.5 52.2157V63.9816C0.5 71.1706 6.32785 76.9985 13.5169 76.9985H25.2828C27.0782 76.9985 28.5337 75.543 28.5337 73.7475V55.4667Z" fill="#0A0606"/>
<path d="M108.231 77.0006V4.98905H138.117C154.641 4.98905 165.249 14.373 165.249 29.0609C165.249 43.8508 154.641 53.4387 138.117 53.4387H123.939V77.0006H108.231ZM138.117 39.7708C145.053 39.7708 149.541 35.6908 149.541 29.3669C149.541 23.0429 145.053 18.9629 138.117 18.9629H123.939V39.7708H138.117ZM169.859 77.0006V21.9209H184.853V28.5509H185.465C187.301 23.4509 191.279 20.6969 196.991 20.6969H204.641L205.865 36.2008H194.951C188.423 36.2008 184.853 39.0568 184.853 44.3608V77.0006H169.859ZM234.123 78.2246C217.497 78.2246 206.073 66.4946 206.073 49.4607C206.073 32.4268 217.497 20.6969 234.123 20.6969C250.749 20.6969 262.173 32.4268 262.173 49.4607C262.173 66.4946 250.749 78.2246 234.123 78.2246ZM234.123 65.7807C242.181 65.7807 247.077 59.6607 247.077 49.4607C247.077 39.2608 242.181 33.1408 234.123 33.1408C226.065 33.1408 221.169 39.2608 221.169 49.4607C221.169 59.6607 226.065 65.7807 234.123 65.7807ZM279.791 77.0006L260.309 21.9209H275.303L288.971 63.2307H289.583L303.149 21.9209H317.429L297.947 77.0006H279.791ZM332.913 77.8166C322.101 77.8166 315.063 71.0846 315.063 60.6807C315.063 51.8067 321.081 45.9928 331.689 44.7688L346.274 43.1368C349.028 42.7288 350.354 41.5048 350.354 39.2608C350.354 35.0788 347.192 32.5288 342.093 32.5288C336.993 32.5288 333.525 35.0788 332.913 39.2608H317.511C318.633 27.7349 328.119 20.6969 342.297 20.6969C356.882 20.6969 365.348 27.9389 365.348 40.4848V77.0006H350.354V69.8606H349.742C346.988 74.5526 340.155 77.8166 332.913 77.8166ZM337.809 66.1887C344.234 66.1887 350.354 60.5787 350.354 54.0507V52.1127C349.64 52.6227 348.824 52.8267 347.804 52.9287L336.891 54.1527C332.913 54.5607 330.669 56.7027 330.669 60.0687C330.669 63.8427 333.423 66.1887 337.809 66.1887ZM371.583 77.0006V1.92906L386.577 0.705078V29.7749H387.189C390.555 23.9609 395.961 21.0029 403.611 21.0029C418.095 21.0029 427.581 32.3248 427.581 49.4607C427.581 66.5966 418.095 78.0206 403.611 78.0206C395.961 78.0206 390.555 75.0626 387.189 69.1466H386.577V77.0006H371.583ZM399.429 33.4468C391.677 33.4468 386.577 39.7708 386.577 49.4607C386.577 59.2527 391.677 65.5767 399.429 65.5767C407.283 65.5767 412.281 59.2527 412.281 49.4607C412.281 39.7708 407.283 33.4468 399.429 33.4468ZM432.149 77.0006V1.92906L447.143 0.705078V77.0006H432.149ZM478.761 78.2246C462.441 78.2246 451.629 66.6986 451.629 49.4607C451.629 32.2228 462.441 20.6969 478.761 20.6969C497.324 20.6969 508.238 34.3648 505.586 54.3567H467.031C468.255 61.9047 472.437 66.1887 479.067 66.1887C484.677 66.1887 488.553 63.7407 490.185 59.2527H505.484C502.526 71.3906 493.04 78.2246 478.761 78.2246ZM467.031 44.1568H491.102C489.879 36.7108 485.697 32.7328 479.067 32.7328C472.539 32.7328 468.357 36.8128 467.031 44.1568Z" fill="#0A0606"/>
</g>
<defs>
<clipPath id="clip0_490_4327">
<rect width="509" height="79" fill="white" transform="translate(0.5)"/>
</clipPath>
</defs>
</svg>
