<svg width="62" height="16" viewBox="0 0 62 16" fill="none" xmlns="http://www.w3.org/2000/svg">
<g opacity="0.8">
<g opacity="0.2">
<path d="M46 2.89266C46 1.29509 47.2951 0 48.8927 0L59.1073 0C60.7049 0 62 1.29509 62 2.89265V13.1073C62 14.7049 60.7049 16 59.1073 16H56.4927C56.0937 16 55.7702 15.6766 55.7702 15.2776V7.67464C55.7702 6.87665 55.1233 6.22975 54.3254 6.22975H46.7224C46.3234 6.22975 46 5.90631 46 5.50731V2.89266Z" fill="white"/>
<path d="M52.2298 11.2151C52.2298 10.4171 51.5829 9.77025 50.7849 9.77025H46.7224C46.3234 9.77025 46 10.0937 46 10.4927V13.1073C46 14.7049 47.2951 16 48.8927 16H51.5073C51.9063 16 52.2298 15.6766 52.2298 15.2776V11.2151Z" fill="white"/>
</g>
<path opacity="0.2" d="M28 11L30.211 7.96601L28.0917 5H29.4495L31 7.15864H31.055L32.6147 5H33.9083L31.7982 7.92351L34 11H32.6147L31.0092 8.77337H30.9541L29.3394 11H28Z" fill="white"/>
<path opacity="0.2" d="M13.1074 0C14.7049 0 16 1.29509 16 2.89258V13.1074C16 14.7049 14.7049 16 13.1074 16H2.89258C1.29509 16 0 14.7049 0 13.1074V2.89258C0 1.29509 1.29509 0 2.89258 0H13.1074ZM3.50977 13H4.72363L5.77148 9.92285H4.5625L3.50977 13ZM4.93164 8.84668H6.14941L7.76855 4.07715H8.35449L9.97363 8.84668H6.14941L5.77246 9.92285H10.3369L11.3828 13H12.6396L9.2334 3H6.93066L4.93164 8.84668ZM3.35547 9.92285H4.5625L4.93066 8.84668H3.72363L3.35547 9.92285Z" fill="white"/>
</g>
</svg>
