<svg width="20" height="21" viewBox="0 0 20 21" fill="none" xmlns="http://www.w3.org/2000/svg">
<g opacity="0.4">
<path d="M10 9.78168V11.7817" stroke="white" stroke-width="1.5" stroke-linecap="round" stroke-linejoin="round"/>
<path d="M13.4427 11.7404C13.4446 11.6927 13.4457 11.6447 13.4457 11.5965V9.88351C13.4457 7.99142 11.9035 6.45758 10.0012 6.45758C9.45637 6.45758 8.94103 6.58342 8.48303 6.80746" stroke="white" stroke-width="1.5" stroke-linecap="round" stroke-linejoin="round"/>
<path d="M6.55901 9.73953C6.55703 9.78728 6.55603 9.83528 6.55603 9.88353V11.5965C6.55603 13.4886 8.09816 15.0224 10.0005 15.0224C10.5454 15.0224 11.0607 14.8966 11.5187 14.6725" stroke="white" stroke-width="1.5" stroke-linecap="round" stroke-linejoin="round"/>
<path d="M15.7695 14.914C16.21 14.0455 16.458 13.0639 16.458 12.0248V9.45534C16.458 7.46292 15.546 5.68238 14.1146 4.50415" stroke="white" stroke-width="1.5" stroke-linecap="round" stroke-linejoin="round"/>
<path d="M3.54163 10.1333V9.45526C3.54163 5.90763 6.43312 3.03168 9.99996 3.03168C10.327 3.03168 10.6483 3.05585 10.9623 3.1025" stroke="white" stroke-width="1.5" stroke-linecap="round" stroke-linejoin="round"/>
<path d="M13.4275 17.4692C12.4339 18.0896 11.2583 18.4483 9.9985 18.4483C6.97045 18.4483 4.42909 16.3756 3.73047 13.5788" stroke="white" stroke-width="1.5" stroke-linecap="round" stroke-linejoin="round"/>
</g>
</svg>
