<svg width="88" height="29" viewBox="0 0 88 29" fill="none" xmlns="http://www.w3.org/2000/svg">
<path d="M29.0839 28.5055H22.6311L12.4011 18.2579H9.20091V13.6762H12.4011L22.6311 3.4287H29.0839L16.1958 15.9671L29.0839 28.5055ZM7.38223 28.5055H2.83554V3.4287H7.38223V28.5055ZM55.822 11.8226C55.822 12.8602 55.6879 13.787 55.4198 14.6031C55.1633 15.4191 54.8194 16.142 54.388 16.7715C53.9567 17.3894 53.4496 17.9198 52.8666 18.3628C52.2954 18.8059 51.7008 19.1731 51.0829 19.4645C50.4651 19.7443 49.8355 19.9484 49.1943 20.0766C48.5648 20.2048 47.9702 20.269 47.4106 20.269H45.5745V28.5055H40.9928V20.269H39.1741C38.6145 20.269 38.0141 20.2048 37.3729 20.0766C36.7434 19.9484 36.1138 19.7443 35.4843 19.4645C34.8664 19.1731 34.2718 18.8059 33.7006 18.3628C33.1293 17.9198 32.6222 17.3894 32.1792 16.7715C31.7478 16.142 31.3981 15.4191 31.13 14.6031C30.8735 13.7753 30.7452 12.8485 30.7452 11.8226V3.4287H35.2919V11.8226C35.2919 12.4172 35.3852 12.9534 35.5717 13.4314C35.7583 13.8978 36.0206 14.3 36.3587 14.638C36.6967 14.9761 37.1048 15.2384 37.5828 15.425C38.0724 15.5998 38.6145 15.6873 39.2091 15.6873H47.4106C47.842 15.6173 48.285 15.5299 48.7396 15.425C49.1943 15.3084 49.6082 15.116 49.9812 14.8479C50.3543 14.5798 50.6632 14.2067 50.9081 13.7287C51.1529 13.2507 51.2753 12.6154 51.2753 11.8226V3.4287H55.822V11.8226ZM84.3787 28.5055H79.832V22.3499H63.8487V28.5055H59.302V15.9671C59.302 14.1367 59.6167 12.4521 60.2463 10.9133C60.8758 9.37438 61.7502 8.05117 62.8694 6.94365C63.9886 5.83612 65.3118 4.97341 66.839 4.35553C68.3662 3.73764 70.0333 3.4287 71.8403 3.4287H82.0879C82.4027 3.4287 82.6999 3.48699 82.9797 3.60358C83.2595 3.72016 83.5044 3.88337 83.7142 4.09322C83.9241 4.30307 84.0873 4.54789 84.2039 4.82769C84.3204 5.10748 84.3787 5.40477 84.3787 5.71954V28.5055ZM63.8487 17.8032H79.832V7.9754H71.8403C71.7004 7.9754 71.4032 7.99871 70.9485 8.04534C70.5055 8.08032 69.9867 8.17941 69.3921 8.34263C68.8092 8.50584 68.1913 8.75649 67.5385 9.09458C66.8856 9.43267 66.2852 9.899 65.7373 10.4936C65.1893 11.0881 64.7347 11.8343 64.3733 12.7319C64.0235 13.618 63.8487 14.6963 63.8487 15.9671V17.8032Z" fill="white"/>
<circle cx="43.6228" cy="3.50546" r="2.52804" fill="#298EF9"/>
</svg>
