<svg width="1608" height="118" viewBox="0 0 804 59" fill="none" xmlns="http://www.w3.org/2000/svg">
<path d="M53.657 3.37598C54.0598 4.31592 54.1807 5.30957 54.0195 6.35693C53.8584 7.37744 53.4287 8.25024 52.7305 8.97534L18.1675 47.5264H53.5764V58H6.3645C5.34399 58 4.39062 57.718 3.50439 57.1541C2.64502 56.5632 2.00049 55.7979 1.5708 54.8579C1.11426 53.918 0.966553 52.9377 1.12769 51.9172C1.31567 50.8967 1.74536 50.0105 2.41675 49.2585L37.0603 10.7075H1.5708V0.233887H48.8633C49.8838 0.233887 50.8237 0.529297 51.6831 1.12012C52.5693 1.68408 53.2273 2.43604 53.657 3.37598ZM120.688 24.4038C120.688 26.7939 120.393 28.929 119.802 30.8088C119.211 32.6887 118.406 34.3538 117.385 35.804C116.391 37.2273 115.237 38.4492 113.921 39.4697C112.605 40.4902 111.222 41.3228 109.771 41.9673C108.348 42.6118 106.898 43.0818 105.421 43.3772C103.971 43.6726 102.601 43.8203 101.312 43.8203H77.6255V33.3467H101.312C102.655 33.2393 103.863 32.9707 104.938 32.541C106.039 32.0845 106.979 31.4802 107.757 30.7283C108.536 29.9763 109.14 29.0767 109.57 28.0293C110 26.9551 110.215 25.7466 110.215 24.4038V19.6504C110.08 18.3345 109.798 17.126 109.369 16.0249C108.939 14.9238 108.348 13.9839 107.596 13.2051C106.871 12.4263 105.985 11.822 104.938 11.3923C103.89 10.9358 102.682 10.7075 101.312 10.7075H77.7061C76.3096 10.7075 75.2488 11.0701 74.5237 11.7952C73.7986 12.5203 73.436 13.5676 73.436 14.9373V58H62.9624V14.9373C62.9624 12.2517 63.4458 9.96899 64.4126 8.08911C65.4062 6.20923 66.6282 4.69189 68.0784 3.53711C69.5554 2.38232 71.1533 1.5498 72.8721 1.03955C74.5908 0.502441 76.1753 0.233887 77.6255 0.233887H101.312C103.675 0.233887 105.797 0.542725 107.677 1.1604C109.557 1.75122 111.208 2.55688 112.632 3.57739C114.082 4.57104 115.304 5.72583 116.297 7.04175C117.318 8.35767 118.15 9.74072 118.795 11.1909C119.466 12.6143 119.95 14.0645 120.245 15.5415C120.541 16.9917 120.688 18.3613 120.688 19.6504V24.4038ZM186.35 58H175.876V43.8203H139.057V58H128.584V29.1169C128.584 24.9006 129.309 21.02 130.759 17.4751C132.209 13.9302 134.223 10.8821 136.802 8.33081C139.38 5.77954 142.428 3.79224 145.946 2.3689C149.464 0.945557 153.304 0.233887 157.467 0.233887H181.073C181.798 0.233887 182.483 0.368164 183.127 0.636719C183.772 0.905273 184.336 1.28125 184.819 1.76465C185.302 2.24805 185.678 2.81201 185.947 3.45654C186.216 4.10107 186.35 4.78589 186.35 5.51099V58ZM139.057 33.3467H175.876V10.7075H157.467C157.145 10.7075 156.46 10.7612 155.412 10.8687C154.392 10.9492 153.197 11.1775 151.827 11.5535C150.484 11.9294 149.061 12.5068 147.557 13.2856C146.053 14.0645 144.67 15.1387 143.408 16.5083C142.146 17.8779 141.098 19.5967 140.266 21.6646C139.46 23.7056 139.057 26.1897 139.057 29.1169V33.3467ZM254.066 41.0005C254.066 43.0684 253.797 44.9348 253.26 46.5999C252.75 48.238 252.065 49.6882 251.206 50.9504C250.346 52.2126 249.339 53.2869 248.185 54.1731C247.03 55.0593 245.835 55.7844 244.599 56.3484C243.364 56.9124 242.102 57.3286 240.813 57.5972C239.551 57.8657 238.355 58 237.228 58H196.823V47.5264H237.228C239.242 47.5264 240.799 46.9355 241.9 45.7539C243.028 44.5723 243.592 42.9878 243.592 41.0005C243.592 40.0337 243.445 39.1475 243.149 38.3418C242.854 37.5361 242.424 36.8379 241.86 36.2471C241.323 35.6562 240.652 35.1997 239.846 34.8774C239.067 34.5552 238.194 34.394 237.228 34.394H213.138C211.446 34.394 209.62 34.0986 207.66 33.5078C205.699 32.8901 203.873 31.9099 202.181 30.5671C200.516 29.2244 199.12 27.4653 197.992 25.29C196.891 23.1147 196.34 20.4561 196.34 17.314C196.34 14.1719 196.891 11.5266 197.992 9.37817C199.12 7.20288 200.516 5.44385 202.181 4.10107C203.873 2.73145 205.699 1.75122 207.66 1.1604C209.62 0.542725 211.446 0.233887 213.138 0.233887H248.789V10.7075H213.138C211.151 10.7075 209.593 11.3118 208.465 12.5203C207.364 13.7288 206.814 15.3267 206.814 17.314C206.814 19.3281 207.364 20.926 208.465 22.1077C209.593 23.2625 211.151 23.8398 213.138 23.8398H237.228H237.308C238.436 23.8667 239.631 24.0278 240.893 24.3232C242.156 24.5918 243.404 25.0215 244.64 25.6123C245.902 26.2031 247.097 26.9551 248.225 27.8682C249.353 28.7544 250.346 29.8286 251.206 31.0908C252.092 32.353 252.79 33.8032 253.301 35.4414C253.811 37.0796 254.066 38.9326 254.066 41.0005ZM318.277 41.0005C318.277 43.0684 318.009 44.9348 317.472 46.5999C316.961 48.238 316.277 49.6882 315.417 50.9504C314.558 52.2126 313.551 53.2869 312.396 54.1731C311.241 55.0593 310.046 55.7844 308.811 56.3484C307.575 56.9124 306.313 57.3286 305.024 57.5972C303.762 57.8657 302.567 58 301.439 58H261.035V47.5264H301.439C303.453 47.5264 305.011 46.9355 306.112 45.7539C307.24 44.5723 307.804 42.9878 307.804 41.0005C307.804 40.0337 307.656 39.1475 307.361 38.3418C307.065 37.5361 306.635 36.8379 306.072 36.2471C305.534 35.6562 304.863 35.1997 304.057 34.8774C303.279 34.5552 302.406 34.394 301.439 34.394H277.35C275.658 34.394 273.832 34.0986 271.871 33.5078C269.911 32.8901 268.084 31.9099 266.393 30.5671C264.728 29.2244 263.331 27.4653 262.203 25.29C261.102 23.1147 260.552 20.4561 260.552 17.314C260.552 14.1719 261.102 11.5266 262.203 9.37817C263.331 7.20288 264.728 5.44385 266.393 4.10107C268.084 2.73145 269.911 1.75122 271.871 1.1604C273.832 0.542725 275.658 0.233887 277.35 0.233887H313V10.7075H277.35C275.362 10.7075 273.805 11.3118 272.677 12.5203C271.576 13.7288 271.025 15.3267 271.025 17.314C271.025 19.3281 271.576 20.926 272.677 22.1077C273.805 23.2625 275.362 23.8398 277.35 23.8398H301.439H301.52C302.647 23.8667 303.843 24.0278 305.105 24.3232C306.367 24.5918 307.616 25.0215 308.851 25.6123C310.113 26.2031 311.308 26.9551 312.436 27.8682C313.564 28.7544 314.558 29.8286 315.417 31.0908C316.303 32.353 317.002 33.8032 317.512 35.4414C318.022 37.0796 318.277 38.9326 318.277 41.0005ZM427.163 0.233887L417.495 54.3745C417.28 55.4487 416.797 56.3752 416.045 57.1541C415.293 57.9329 414.38 58.4297 413.305 58.6445C412.204 58.8325 411.157 58.7117 410.163 58.282C409.197 57.8523 408.431 57.1809 407.867 56.2678L388.692 24.7664L369.477 56.2678C369.021 57.0466 368.39 57.6509 367.584 58.0806C366.805 58.5103 365.959 58.7251 365.046 58.7251C363.784 58.7251 362.669 58.3223 361.703 57.5166C360.736 56.7109 360.145 55.6636 359.93 54.3745L350.182 0.233887H360.816L367.745 38.3821L384.261 12.0369C384.718 11.2581 385.335 10.6538 386.114 10.2241C386.92 9.79443 387.779 9.57959 388.692 9.57959C389.605 9.57959 390.451 9.79443 391.23 10.2241C392.009 10.6538 392.654 11.2581 393.164 12.0369L409.599 38.3821L416.528 0.233887H427.163ZM446.7 58H436.227V0.233887H446.7V58ZM511.153 10.7075H488.071V58H477.597V10.7075H454.475V0.233887H511.153V10.7075ZM529.442 23.8398H566.22V0.233887H576.694V58H566.22V34.394H529.442V58H518.968V0.233887H529.442V23.8398ZM676.355 58H661.49L637.925 34.394H630.553V23.8398H637.925L661.49 0.233887H676.355L646.666 29.1169L676.355 58ZM626.363 58H615.89V0.233887H626.363V58ZM737.948 19.5698C737.948 21.96 737.639 24.095 737.021 25.9749C736.43 27.8547 735.638 29.5198 734.645 30.97C733.651 32.3933 732.483 33.6152 731.14 34.6357C729.824 35.6562 728.454 36.5022 727.031 37.1736C725.608 37.8181 724.157 38.2881 722.68 38.5835C721.23 38.8789 719.861 39.0266 718.572 39.0266H714.342V58H703.788V39.0266H699.598C698.309 39.0266 696.926 38.8789 695.449 38.5835C693.999 38.2881 692.549 37.8181 691.098 37.1736C689.675 36.5022 688.305 35.6562 686.99 34.6357C685.674 33.6152 684.505 32.3933 683.485 30.97C682.491 29.5198 681.686 27.8547 681.068 25.9749C680.477 24.0681 680.182 21.9331 680.182 19.5698V0.233887H690.655V19.5698C690.655 20.9395 690.87 22.1748 691.3 23.2759C691.729 24.3501 692.334 25.2766 693.113 26.0554C693.891 26.8342 694.831 27.4385 695.932 27.8682C697.06 28.271 698.309 28.4724 699.679 28.4724H718.572C719.565 28.3113 720.586 28.1099 721.633 27.8682C722.68 27.5996 723.634 27.1565 724.493 26.5388C725.353 25.9211 726.064 25.0618 726.628 23.9607C727.192 22.8596 727.474 21.396 727.474 19.5698V0.233887H737.948V19.5698ZM803.73 58H793.257V43.8203H756.438V58H745.964V29.1169C745.964 24.9006 746.689 21.02 748.139 17.4751C749.59 13.9302 751.604 10.8821 754.182 8.33081C756.76 5.77954 759.808 3.79224 763.326 2.3689C766.844 0.945557 770.685 0.233887 774.847 0.233887H798.453C799.178 0.233887 799.863 0.368164 800.508 0.636719C801.152 0.905273 801.716 1.28125 802.199 1.76465C802.683 2.24805 803.059 2.81201 803.327 3.45654C803.596 4.10107 803.73 4.78589 803.73 5.51099V58ZM756.438 33.3467H793.257V10.7075H774.847C774.525 10.7075 773.84 10.7612 772.793 10.8687C771.772 10.9492 770.577 11.1775 769.208 11.5535C767.865 11.9294 766.441 12.5068 764.938 13.2856C763.434 14.0645 762.051 15.1387 760.788 16.5083C759.526 17.8779 758.479 19.5967 757.646 21.6646C756.841 23.7056 756.438 26.1897 756.438 29.1169V33.3467Z" fill="white"/>
</svg>
